#!OML:ASF E:/inclinewalkrobotboard/Project1/Captureday1/Session1/subject1.ASF
:FULLY-SPECIFIED
:DEGREES
376
root 0 0 0 -1.7043508520485033 -5.057127161411225 -7.47917395293085
lowerback 10.16943476409025 1.784979959087662 5.6688350047069465
upperback -0.8970568268964706 3.131973545381026 1.7929463535475925
thorax -6.546585483603546 1.4096284526911054 -1.7936416769283352
lowerneck -17.470559317007684 -3.207070623823455 -0.9112472901482924
upperneck 12.888376502793642 -4.017081206069617 -0.31572718583316206
head 6.797772914083636 -2.036546141348131 -0.4224145423678585
rclavicle -2.66697708861749E-15 2.058808432896853E-15
rhumerus -27.979073813443417 -24.48961129956471 -79.71150415186511
rradius 26.722385054193005
rwrist 16.699476246721346
rhand -21.02828516417258 27.41281938185118
rfingers 7.12501999999999
rthumb 5.374866975360009 -2.7544161491966648
lclavicle -8.085526412741368E-16 1.2871491929775704E-15
lhumerus -32.05045166132416 -1.0694008332258749 82.00892046145853
lradius 29.980130086595985
lwrist 7.991566252559414
lhand -27.83861112685269 25.8563150393379
lfingers 7.125020000000008
lthumb -1.241057561179895 55.85588183276805
rfemur -7.613766524485432 6.836216228930976 30.74793163048099
rtibia 33.64067815398433
rfoot -13.399265175640576 -6.68081813193432
rtoes 3.6715810583127997
lfemur -19.80202016729864 2.8959275970463443 -15.18335601320754
ltibia 41.984877277257496
lfoot -1.4748955809594264 -5.628912222508703
ltoes -11.735245001108066
377
root 0 0 0 -1.4285517741761655 -5.315175594008106 -8.065035067531817
lowerback 9.56966873918908 2.329210475137037 6.366028530778229
upperback -1.054077481497635 3.88283295985721 1.3738819619241966
thorax -6.403171043333875 1.7616858685852654 -2.711046188368536
lowerneck -17.11506636896664 -3.1431402626493328 -0.8833079273452472
upperneck 12.826125460234872 -4.187596167244733 0.4391210054559118
head 6.774243699349312 -2.030417003538334 -0.17947280673559346
rclavicle -3.705997985627828E-15 2.1735127586475015E-15
rhumerus -27.162913433409727 -22.691763563414327 -79.69263042716473
rradius 28.377305897827938
rwrist 15.930756341719196
rhand -21.102170586818776 28.12332130251864
rfingers 7.125019999999993
rthumb 5.30087511965708 -2.0417177476088426
lclavicle -1.9205669786633128E-15 1.0665229051900446E-15
lhumerus -33.706525213139955 1.881696862326221 81.21567878927691
lradius 26.17348947373833
lwrist 5.157570197873619
lhand -27.389028331480002 26.27762503776934
lfingers 7.125020000000006
lthumb -0.7983180423589973 56.270481170564175
rfemur -6.4777287970467805 6.895998281910208 30.735624735232875
rtibia 32.64648180245346
rfoot -13.633960288459516 -6.444162754220244
rtoes 3.5371493732183463
lfemur -21.16915881475038 1.864768347648468 -12.877266756811105
ltibia 39.470376316923506
lfoot -4.162787631383907 -2.2164385265464612
ltoes -20.18666715756674
378
root 0 0 0 -1.278457007280044 -5.474701441590076 -8.259700779406863
lowerback 9.50958560866208 2.558969157237761 6.652205596432344
upperback -0.7740317563921928 4.196389110271216 1.228482550260659
thorax -6.07151034322133 1.9090672140895737 -3.053908025334452
lowerneck -16.47017032961961 -3.1222237770297947 -0.949941862901942
upperneck 13.11327093363101 -4.262628690389295 0.9067932770472303
head 6.769912705571622 -2.026061746998673 -0.014369491505909049
rclavicle -5.138418742964499E-15 1.801579710995462E-15
rhumerus -26.70883822959189 -20.965799515571334 -80.06341928382486
rradius 29.133941507818054
rwrist 15.965833458441761
rhand -21.000517970254197 28.843621237254744
rfingers 7.125019999999995
rthumb 5.397279454520086 -1.3112964216527772
lclavicle -4.405391987016667E-15 7.774328524947974E-16
lhumerus -35.111567351152075 5.9187350584923815 80.51279407091539
lradius 20.158172807779618
lwrist 0.7744715822515997
lhand -26.903117640710988 26.675666523921816
lfingers 7.1250199999999975
lthumb -0.34073232749270943 56.674052729636685
rfemur -5.6945282094124074 6.803346788940091 30.40174378170726
rtibia 32.12467002385571
rfoot -13.456831536103413 -6.164270783758864
rtoes 3.490932929742906
lfemur -21.99461745790062 1.0337824535800095 -11.697854348104135
ltibia 37.8636854297869
lfoot -5.552560300632512 -0.2849839594651802
ltoes -24.04623757332143
379
root 0 0 0 -1.1328533283670987 -5.551735215815604 -8.34218794032773
lowerback 9.469531065853195 2.6546052380851393 6.712326354825021
upperback -0.5611316842675416 4.320674093328459 1.1950586033132957
thorax -5.811772204212272 1.9702255208484218 -3.1312002654990403
lowerneck -15.77920310106207 -3.119966188781725 -0.974886041571429
upperneck 13.54086201138162 -4.315541120180171 1.2261889209315133
head 6.805571016854542 -2.0274050880048646 0.0965838460993936
rclavicle -5.62678320965183E-15 1.1060595311102665E-15
rhumerus -27.03237035809367 -19.87005017434226 -80.87045890479993
rradius 28.51283541729101
rwrist 16.525302302941775
rhand -20.815011957278774 29.40490703262836
rfingers 7.125019999999994
rthumb 5.576577155673816 -0.7449377666965447
lclavicle -5.45821896589857E-15 5.48817255470899E-16
lhumerus -35.37419912195244 7.980671472589543 80.26320342631448
lradius 16.796935134552175
lwrist -1.6035600670821988
lhand -26.765876620627825 26.74223381210126
lfingers 7.125019999999986
lthumb -0.23307778841723792 56.75164119819421
rfemur -5.275473134603189 6.539963251983002 29.735982208520753
rtibia 32.23246275217772
rfoot -12.756394378522188 -5.812329771472129
rtoes 3.634081338152182
lfemur -22.112754294031397 0.818651522576221 -13.03268744716922
ltibia 38.343290963785236
lfoot -3.9214449768111628 -1.7028053519123083
ltoes -17.366517821590218
380
root 0 0 0 -1.1169686943106139 -5.597694101512207 -8.33985620105106
lowerback 9.3974650090389 2.6974473488240824 6.695176378031252
upperback -0.42355867939921793 4.37035040366214 1.1745764765115216
thorax -5.615682752277981 1.9959093453261514 -3.14272002152785
lowerneck -15.354306742909326 -3.1312819434653223 -1.0065912415202378
upperneck 13.718531277710115 -4.362116128903597 1.4570411598669128
head 6.79006768414709 -2.0352031392857235 0.17881738758725657
rclavicle -5.339980576176765E-15 7.130464900768742E-16
rhumerus -27.819263529727348 -19.439020637434815 -81.76856082271198
rradius 27.072983634995484
rwrist 17.050450587589772
rhand -20.619905698857092 29.788029527973883
rfingers 7.125019999999993
rthumb 5.76599029520589 -0.36776597136705647
lclavicle -5.488664180145299E-15 3.0660464618660925E-16
lhumerus -35.43509354048639 8.607721187783536 80.11424016809707
lradius 15.867568380802407
lwrist -2.250856243839929
lhand -26.754935154358986 26.73060669117598
lfingers 7.125019999999981
lthumb -0.23250647305284122 56.74268979652853
rfemur -5.421498529553267 6.117491095397366 28.922204170247216
rtibia 33.53164674460744
rfoot -11.45528789449531 -5.431083392993397
rtoes 4.186266362839348
lfemur -21.798273676339935 1.0449768680077556 -14.890801665238557
ltibia 39.694161340262674
lfoot -1.5502435969332709 -4.103716573431333
ltoes -9.019803832839752
381
root 0 0 0 -1.203882076069399 -5.6506164125639025 -8.284089890048914
lowerback 9.29275644272671 2.7140975593307073 6.656172200492101
upperback -0.3234732360210478 4.383206528211388 1.1576817533648927
thorax -5.444143489006133 2.0041006397787013 -3.1329195481929126
lowerneck -15.122012851257074 -3.1447308902481 -1.0603037737834913
upperneck 13.618307314386985 -4.391134479469788 1.6387047117048548
head 6.702024563673724 -2.0426318985100966 0.2492318203776933
rclavicle -5.050411144396805E-15 3.9362765141120765E-16
rhumerus -28.471945574640305 -19.296828208413494 -82.39584364999628
rradius 25.778477790970655
rwrist 17.34367488894408
rhand -20.443637753856276 30.03506723097103
rfingers 7.125019999999993
rthumb 5.937014044745611 -0.12413790717107531
lclavicle -5.4477763422326975E-15 1.8202773417027998E-17
lhumerus -35.42150142004327 8.762569931488095 80.06878410671281
lradius 15.635347526750174
lwrist -2.382495054283336
lhand -26.77791762511038 26.772771527455635
lfingers 7.12501999999998
lthumb -0.25695200588170586 56.78946923853526
rfemur -6.18014933370741 5.696898360311204 28.503537726203646
rtibia 36.257291666653146
rfoot -9.971972117570157 -5.173264025070392
rtoes 5.146255712180419
lfemur -21.49566341240239 1.284458325498126 -15.754271157781057
ltibia 40.59562794706045
lfoot -0.31952631442715074 -5.405356590651847
ltoes -5.320170445509806
382
root 0 0 0 -1.322863489608549 -5.726146199632399 -8.210536560090265
lowerback 9.155184014927617 2.7215971832296475 6.613750873398569
upperback -0.23854753258374253 4.382488356787455 1.1473345653005358
thorax -5.271360868492359 2.006555470919907 -3.111660888413793
lowerneck -14.918458997519766 -3.152956424974104 -1.1290436034749876
upperneck 13.341363691345347 -4.401495285875582 1.8161495005380495
head 6.554729248702103 -2.045811918678808 0.322921234406576
rclavicle -4.887155349342776E-15 1.9205225499867202E-16
rhumerus -28.917122306311633 -19.111587270578987 -82.80997347988503
rradius 24.879908309475695
rwrist 17.381082301240717
rhand -20.281113426981626 30.207519938936024
rfingers 7.125019999999993
rthumb 6.093759736372461 0.05073438596081559
lclavicle -5.458105701254811E-15 -2.1379688493719855E-16
lhumerus -35.35984204334133 8.758515977484947 80.11392999053703
lradius 15.584366395119773
lwrist -2.3886441711491186
lhand -26.794133432404813 26.813007462635905
lfingers 7.12501999999998
lthumb -0.27217369771434363 56.83325930587577
rfemur -7.273079217380056 5.46290228511285 28.684136441760188
rtibia 39.25547406514553
rfoot -8.99843311049423 -5.1741662054183
rtoes 6.034935578076683
lfemur -21.373198649522337 1.3911541552656983 -16.02344219197547
ltibia 41.00498549382317
lfoot 0.14579394250479716 -5.892219175158461
ltoes -4.142869442176977
